<?xml version="1.0" encoding="UTF-8" standalone="no"?>
<!DOCTYPE svg PUBLIC "-//W3C//DTD SVG 1.1//EN"
 "http://www.w3.org/Graphics/SVG/1.1/DTD/svg11.dtd">
<!-- Generated by graphviz version 7.1.0 (0)
 -->
<!-- Title: G Pages: 1 -->
<svg width="148pt" height="131pt"
 viewBox="0.00 0.00 148.41 130.86" xmlns="http://www.w3.org/2000/svg" xmlns:xlink="http://www.w3.org/1999/xlink">
<g id="graph0" class="graph" transform="scale(1 1) rotate(0) translate(4 126.86)">
<title>G</title>
<polygon fill="white" stroke="none" points="-4,4 -4,-126.86 144.41,-126.86 144.41,4 -4,4"/>
<!-- n1 -->
<g id="box1" class="node">
<title>n1</title>
<ellipse fill="none" stroke="black" cx="18" cy="-52.4" rx="18" ry="18"/>
<text text-anchor="middle" x="18" y="-48.7" font-family="Serif" font-size="14.00">A</text>
</g>
<!-- n6 -->
<!-- junction -->
<g id="junction1" class="node">
<title>n6</title>
<ellipse fill="black" stroke="black" cx="36.99" cy="-88.96" rx="2.5" ry="2.5"/>
</g>
<!-- n1&#45;&#45;n6 -->
<g id="edge1" class="edge">
<title>n1&#45;&#45;n6</title>
<path fill="none" stroke="black" d="M26.39,-68.54C30.04,-75.58 33.92,-83.05 35.82,-86.7"/>
</g>
<!-- n7 -->
<!-- junction -->
<g id="junction2" class="node">
<title>n7</title>
<ellipse fill="black" stroke="black" cx="40.14" cy="-18.52" rx="2.5" ry="2.5"/>
</g>
<!-- n1&#45;&#45;n7 -->
<g id="edge4" class="edge">
<title>n1&#45;&#45;n7</title>
<path fill="none" stroke="black" d="M28.03,-37.05C32.06,-30.88 36.27,-24.43 38.51,-21.01"/>
</g>
<!-- n2 -->
<g id="box2" class="node">
<title>n2</title>
<ellipse fill="none" stroke="black" cx="80.62" cy="-18" rx="18" ry="18"/>
<text text-anchor="middle" x="80.62" y="-14.3" font-family="Serif" font-size="14.00">B</text>
</g>
<!-- n2&#45;&#45;n7 -->
<g id="edge5" class="edge">
<title>n2&#45;&#45;n7</title>
<path fill="none" stroke="black" d="M62.27,-18.23C54.91,-18.33 47.21,-18.43 43.11,-18.48"/>
</g>
<!-- n8 -->
<!-- junction -->
<g id="junction3" class="node">
<title>n8</title>
<ellipse fill="black" stroke="black" cx="101.27" cy="-53.64" rx="2.5" ry="2.5"/>
</g>
<!-- n2&#45;&#45;n8 -->
<g id="edge6" class="edge">
<title>n2&#45;&#45;n8</title>
<path fill="none" stroke="black" d="M89.73,-33.74C93.71,-40.6 97.93,-47.88 99.99,-51.43"/>
</g>
<!-- n3 -->
<g id="box3" class="node">
<title>n3</title>
<ellipse fill="none" stroke="black" cx="77.88" cy="-87.23" rx="18" ry="18"/>
<text text-anchor="middle" x="77.88" y="-83.53" font-family="Serif" font-size="14.00">C</text>
</g>
<!-- n3&#45;&#45;n6 -->
<g id="edge2" class="edge">
<title>n3&#45;&#45;n6</title>
<path fill="none" stroke="black" d="M59.83,-88C52.13,-88.32 43.97,-88.67 39.8,-88.84"/>
</g>
<!-- n3&#45;&#45;n8 -->
<g id="edge7" class="edge">
<title>n3&#45;&#45;n8</title>
<path fill="none" stroke="black" d="M88.21,-72.4C92.71,-65.93 97.49,-59.07 99.82,-55.72"/>
</g>
<!-- n4 -->
<!-- n4&#45;&#45;n6 -->
<g id="edge3" class="edge">
<title>n4&#45;&#45;n6</title>
<path fill="none" stroke="black" d="M17.72,-121.98C19.49,-118.94 31.55,-98.29 35.64,-91.28"/>
</g>
<!-- n5 -->
<!-- n5&#45;&#45;n8 -->
<g id="edge8" class="edge">
<title>n5&#45;&#45;n8</title>
<path fill="none" stroke="black" d="M139.47,-55.24C135.96,-55.09 112.07,-54.09 103.96,-53.75"/>
</g>
</g>
</svg>
