<?xml version="1.0" encoding="UTF-8" standalone="no"?>
<!-- Created with Inkscape (http://www.inkscape.org/) -->

<svg
   version="1.1"
   id="svg18"
   width="384.09933"
   height="180.52667"
   viewBox="0 0 384.09933 180.52667"
   sodipodi:docname="misc.pdf"
   xmlns:inkscape="http://www.inkscape.org/namespaces/inkscape"
   xmlns:sodipodi="http://sodipodi.sourceforge.net/DTD/sodipodi-0.dtd"
   xmlns="http://www.w3.org/2000/svg"
   xmlns:svg="http://www.w3.org/2000/svg">
  <defs
     id="defs22" />
  <sodipodi:namedview
     id="namedview20"
     pagecolor="#ffffff"
     bordercolor="#000000"
     borderopacity="0.25"
     inkscape:showpageshadow="2"
     inkscape:pageopacity="0.0"
     inkscape:pagecheckerboard="0"
     inkscape:deskcolor="#d1d1d1"
     showgrid="false" />
  <g
     id="g26"
     inkscape:groupmode="layer"
     inkscape:label="Page 1"
     transform="matrix(1.3333333,0,0,-1.3333333,-64.211077,710.09767)">
    <g
       id="g46"
       transform="translate(0,-6.9541124e-5)">
      <g
         id="g48">
        <g
           id="g50">
          <path
             d="m 291.54141,397.31577 c 0,0 0,0 0,0 0.0164,0.53314 0.10288,1.06878 0.0492,1.59945 -0.0336,0.33212 -0.27927,0.62046 -0.30735,0.9531 -0.0747,0.88498 -0.69928,2.1195 0.002,2.66443 1.1383,0.88439 2.83945,0.51852 4.2742,0.65808 0.84051,0.0817 1.69141,0.0679 2.53348,0.004 0.53711,-0.0408 1.04843,-0.26578 1.58468,-0.31635 0.42377,-0.0399 0.85642,-0.0244 1.2761,0.0465 0.12207,0.0207 0.18255,0.17883 0.29931,0.22006 0.10889,0.0384 0.23227,0.0256 0.34635,0.008 1.11682,-0.17437 2.23306,-0.35699 3.34048,-0.58355 0.36749,-0.0752 0.70575,-0.28049 1.07871,-0.32059 0.62927,-0.0677 1.26919,-0.0651 1.89871,3.4e-4 0.2251,0.0234 0.39996,0.26223 0.62628,0.26223 0.33194,0 0.62887,-0.25308 0.96066,-0.26223 2.85074,-0.0786 5.70481,-0.0823 8.55542,0 0.22678,0.007 0.4065,0.21112 0.6268,0.26525 0.20847,0.0512 0.42765,0.043 0.64224,0.0465 0.6334,0.0105 1.27042,0.0613 1.90049,-0.004 0.23175,-0.0242 0.41675,-0.2876 0.64828,-0.26145 2.70157,0.30478 5.39197,0.72516 8.06073,1.24396 0.10919,0.0212 -0.0311,0.24698 0.0417,0.33106 0.34595,0.39926 0.91809,0.60424 1.17078,1.06817 0.10833,0.19882 -0.25196,0.40781 -0.24353,0.63407 0.0123,0.33273 0.27969,0.61981 0.30236,0.95199 0.0791,1.15836 0.0722,2.32434 4.6e-4,3.48319 -0.12427,2.00711 -0.48349,3.99591 -0.58777,6.00415 -0.0174,0.33459 0.22312,0.64456 0.22525,0.97958 8e-4,0.12314 -0.17639,0.18271 -0.21701,0.29892 -0.0381,0.10904 -0.0131,0.23099 -0.009,0.34641 0.388,9.73504 0.72708,19.47222 1.18628,29.20416 0.26339,5.58163 0.74966,11.15176 0.98147,16.7348 0.009,0.2254 -0.22509,0.40183 -0.26068,0.6246 -0.067,0.41956 -0.0657,0.84964 -0.0425,1.27387 0.15219,2.78094 0.34638,5.55972 0.56839,8.33597 0.31607,3.95251 0.75278,7.89502 1.04578,11.8493 0.28222,3.80856 0.50479,7.62183 0.67984,11.4368 0.34042,7.41919 0.59936,14.84192 0.86645,22.26413 0.008,0.21362 0.008,0.43201 -0.0422,0.63989 -0.0525,0.21942 -0.26917,0.39917 -0.26065,0.62457 0.13092,3.46271 0.393,6.91999 0.67651,10.37354 0.0122,0.14856 0.25018,0.25329 0.20761,0.39618 -0.0701,0.23511 -0.25717,0.4707 -0.48947,0.54962 -0.89618,0.30463 -1.8475,0.42041 -2.7833,0.56268 -0.21139,0.0322 -0.43228,0.008 -0.64004,-0.0422 -0.22046,-0.0535 -0.40009,-0.25617 -0.62674,-0.2652 -2.00501,-0.0801 -4.01459,-0.0749 -6.01981,-6e-5 -0.22714,0.008 -0.40771,0.24853 -0.63504,0.24853 -0.22732,0 -0.40826,-0.2337 -0.63513,-0.24853 -1.05353,-0.0688 -2.1141,-0.0736 -3.16733,6e-5 -0.22628,0.0158 -0.40411,0.2215 -0.62671,0.26526 -0.31408,0.0618 -0.63903,0.0465 -0.9591,0.0465 -0.2146,0 -0.43372,0.005 -0.64212,-0.0465 -0.22028,-0.0541 -0.40338,-0.22565 -0.62677,-0.26496 -0.21088,-0.0371 -0.43271,-0.008 -0.64099,0.0417 -0.2197,0.0524 -0.39975,0.26032 -0.62564,0.26032 -0.2259,-6e-5 -0.40393,-0.21735 -0.62571,-0.26032 -0.31421,-0.0609 -0.63897,-0.0469 -0.95904,-0.0469 -0.32007,0 -0.64505,-0.015 -0.95914,0.0469 -0.22259,0.0438 -0.40002,0.25849 -0.6268,0.26526 -2.74457,0.0823 -5.49322,0.0942 -8.23746,4.3e-4 -6.26904,-0.21411 -12.53228,-0.57672 -18.79538,-0.92383 -5.14813,-0.28534 -10.28335,-0.8324 -15.43747,-0.97351 -6.6528,-0.18207 -13.31256,-0.15674 -19.96589,0.004 -2.01897,0.0489 -4.01378,0.45722 -6.02634,0.62513 -0.31821,0.0266 -0.64339,0.0176 -0.95698,-0.0425 -0.22155,-0.0425 -0.39901,-0.2663 -0.62452,-0.26068 -4.34318,0.10888 -8.68182,0.36199 -13.01971,0.60266 -1.26312,0.0701 -2.51596,0.30963 -3.78087,0.32934 -0.22555,0.004 -0.40513,-0.20819 -0.62456,-0.26062 -0.20826,-0.0497 -0.43013,-0.0789 -0.64102,-0.0418 -0.22342,0.0393 -0.40637,0.21149 -0.62683,0.26496 -0.20775,0.0503 -0.42706,0.0619 -0.63994,0.0422 -1.80331,-0.16693 -3.6065,-0.34753 -5.39964,-0.60138 -1.20648,-0.17077 -2.40788,-0.38946 -3.59326,-0.67169 -0.19307,-0.046 -0.38236,-0.15442 -0.51105,-0.30548 -0.10838,-0.12726 -0.20164,-0.31628 -0.15529,-0.47687 0.10523,-0.3645 0.50612,-0.60864 0.5763,-0.98144 0.35255,-1.87281 0.59561,-3.77283 0.67712,-5.67676 0.14455,-3.37628 0.0886,-6.75995 0,-10.13812 -0.0422,-1.61121 -0.31236,-3.20957 -0.3923,-4.81934 -0.4227,-8.51327 -0.72248,-17.03223 -1.11547,-25.5469 -0.0139,-0.30097 0.0474,-0.63785 -0.10502,-0.89771 -0.15569,-0.26544 -0.47266,-0.40088 -0.74291,-0.548 -0.099,-0.0539 -0.22307,-0.0395 -0.33575,-0.0393 -0.42501,8.2e-4 -0.8551,-0.0276 -1.27431,0.0423 -0.12237,0.0204 -0.17606,0.22433 -0.30006,0.22018 -0.33173,-0.011 -0.6301,-0.23144 -0.96057,-0.26227 -0.63083,-0.0588 -1.26719,-0.0149 -1.90065,-0.004 -0.21457,0.004 -0.43354,-0.004 -0.64213,0.0466 -0.21952,0.0531 -0.39978,0.25729 -0.62564,0.26031 -0.22633,0.003 -0.40753,-0.24441 -0.63388,-0.24353 -0.22729,8.9e-4 -0.40913,0.22318 -0.63501,0.24848 -0.52424,0.0587 -1.05833,0.0587 -1.58258,0 -0.22587,-0.0253 -0.40791,-0.23838 -0.63498,-0.24848 -0.12368,-0.005 -0.18893,0.17523 -0.30871,0.20655 -0.20717,0.0541 -0.42964,0.0758 -0.64102,0.0416 -0.22435,-0.0363 -0.40798,-0.23816 -0.63501,-0.24817 -0.12371,-0.005 -0.18894,0.17523 -0.30873,0.20655 -0.20717,0.0541 -0.42965,0.0758 -0.64103,0.0416 -0.22433,-0.0363 -0.40796,-0.23816 -0.63501,-0.24817 -0.12368,-0.005 -0.18595,0.19049 -0.30871,0.20655 -0.52635,0.0688 -1.06375,0.0951 -1.59191,0.0419 -0.22572,-0.0227 -0.40416,-0.2215 -0.62675,-0.26526 -0.31409,-0.0617 -0.63907,-0.0465 -0.95917,-0.0465 -0.2146,0 -0.43371,-0.005 -0.64213,0.0465 -0.22029,0.0541 -0.40151,0.23822 -0.62674,0.26526 -0.52375,0.0629 -1.05873,0.0625 -1.58252,0 -0.3306,-0.0394 -0.61902,-0.30237 -0.95197,-0.30237 -0.33294,0 -0.61932,0.28839 -0.95198,0.30237 -2.11079,0.0889 -4.22886,0.12677 -6.338,0.005 -1.4906,-0.0864 -2.94186,-0.63385 -4.43496,-0.62893 -1.65108,0.005 -4.02628,-0.73551 -4.90915,0.65969 -1.2655,1.99985 -0.091,4.73496 -10e-4,7.09986 0.0127,0.33356 0.27798,0.62054 0.30736,0.95306 0.0743,0.84082 0.0582,1.69019 4.4e-4,2.53232 -0.33162,4.83756 -0.71323,9.67224 -1.168,14.49976 -0.28198,2.99319 -0.8495,5.95868 -1.04195,8.95898 -0.15545,2.42352 -0.12922,4.86047 -1e-5,7.28558 0.0795,1.49305 0.45459,2.95624 0.62483,4.44165 0.0243,0.21247 0.0432,0.44416 -0.0424,0.64008 -0.079,0.18066 -0.22628,0.37811 -0.4196,0.41699 -0.22025,0.0444 -0.41808,-0.21118 -0.6426,-0.20318 -0.22717,0.008 -0.40832,0.23199 -0.63504,0.24847 -0.94801,0.0688 -1.90108,0.0159 -2.85151,0.004 -0.21457,-0.003 -0.43371,0.005 -0.64209,-0.0465 -0.2203,-0.0541 -0.40001,-0.25788 -0.62673,-0.26532 -2.5339,-0.083 -5.07056,-0.0174 -7.60577,-0.004 -0.21462,0.001 -0.43373,-0.005 -0.64214,0.0466 -0.22031,0.0541 -0.40152,0.23816 -0.62675,0.26526 -0.52338,0.063 -1.05507,0.0288 -1.58147,4.3e-4 -2.17119,-0.11695 -4.33699,-0.32349 -6.50841,-0.43616 -7.77798,-0.40381 -15.56209,-0.68689 -23.33887,-1.11334 -2.72875,-0.14966 -5.44556,-0.48816 -8.17547,-0.61493 -0.12998,-0.006 -0.19477,0.19415 -0.32223,0.22034 -0.31278,0.0642 -0.6378,0.0507 -0.95699,0.0423 -7.29145,-0.18975 -14.58561,-0.31646 -21.872483,-0.63665 -2.789879,-0.12256 -5.562676,-0.50684 -8.349137,-0.69129 -4.997955,-0.33081 -10.007995,-0.47314 -15.002365,-0.85437 -1.629745,-0.12433 -3.231926,-0.50232 -4.858643,-0.66144 -0.629829,-0.0616 -1.269073,-0.0651 -1.898513,3.7e-4 -0.225151,0.0234 -0.400032,0.2616 -0.626389,0.26227 -0.331123,10e-4 -0.628418,-0.26428 -0.959473,-0.25726 -0.331726,0.007 -0.618553,0.31665 -0.949813,0.29772 -3.418904,-0.19506 -6.834149,-0.49926 -10.230683,-0.93573 -1.340522,-0.17224 -2.650696,-0.53808 -3.956379,-0.88708 -0.09336,-0.025 -0.167434,-0.12634 -0.187843,-0.22083 -0.04567,-0.2113 -0.11377,-0.46466 -3.8e-5,-0.64855 0.199409,-0.32245 0.719639,-0.39148 0.86084,-0.74329 0.108238,-0.26978 -0.223378,-0.55194 -0.224461,-0.84253 -4.65e-4,-0.12408 0.186409,-0.18073 0.220207,-0.30011 0.05846,-0.20648 0.043,-0.42755 0.04654,-0.64209 0.01049,-0.63348 0.06204,-1.27063 -0.0045,-1.90063 -0.02378,-0.22516 -0.255878,-0.40015 -0.262283,-0.62641 -0.0093,-0.33063 0.217209,-0.63739 0.217209,-0.96808 0,-0.12341 -0.177223,-0.18298 -0.217209,-0.29974 -0.03612,-0.10535 -0.02892,-0.22662 0,-0.33417 0.05844,-0.21741 0.264351,-0.39923 0.25766,-0.6242 -0.113075,-3.80799 -0.51886,-7.60401 -0.615063,-11.41242 -0.0084,-0.33255 0.267525,-0.62012 0.302735,-0.9509 0.06695,-0.62924 0.04221,-1.26699 4.42e-4,-1.8984 -0.16803,-2.53946 -0.541588,-5.06556 -0.629532,-7.60904 -0.120479,-3.48401 -0.07918,-6.97321 0.0048,-10.45829 0.0055,-0.22628 0.262283,-0.40002 0.262283,-0.62637 0,-0.33194 -0.229724,-0.63028 -0.262283,-0.96057 -0.04171,-0.42319 -0.02397,-0.85495 0.04194,-1.27502 0.01919,-0.12229 0.206551,-0.18485 0.206551,-0.30866 0,-0.12381 -0.175152,-0.1889 -0.206528,-0.30865 -0.05419,-0.20682 -0.07433,-0.42868 -0.04204,-0.64005 0.162865,-1.06586 0.48481,-2.10467 0.62479,-3.17377 0.05515,-0.42129 0.02823,-0.85498 -0.04248,-1.27392 -0.02076,-0.12305 -0.189312,-0.18039 -0.223187,-0.30048 -0.05808,-0.20575 -0.06792,-0.42773 -0.04219,-0.63995 0.167316,-1.37985 0.533092,-2.73633 0.619762,-4.1236 0.02074,-0.332 -0.273464,-0.6196 -0.302715,-0.95096 -0.07425,-0.84155 -0.01495,-1.68972 -0.0048,-2.53451 0.0039,-0.32004 -0.01495,-0.64502 0.04686,-0.95908 0.04381,-0.22259 0.248024,-0.40057 0.265281,-0.62677 0.07227,-0.94735 0.07227,-1.90298 0,-2.85034 -0.01726,-0.2262 -0.211868,-0.40628 -0.265262,-0.62674 -0.05041,-0.2081 -0.07692,-0.42981 -0.04177,-0.64102 0.05479,-0.32925 0.277683,-0.62061 0.307029,-0.95309 0.07417,-0.84086 0.05252,-1.68985 4.43e-4,-2.53235 -0.150368,-2.43189 -0.368527,-4.85953 -0.607399,-7.28434 -0.07359,-0.74691 -0.311497,-1.47705 -0.329662,-2.22738 -0.0055,-0.22556 0.218174,-0.40308 0.260639,-0.62464 0.06009,-0.31359 0.0698,-0.63885 0.04248,-0.95697 -0.0709,-0.8255 -0.261875,-1.63757 -0.336181,-2.46276 -0.239842,-2.66385 -0.468869,-5.32987 -0.605927,-8.00098 -0.0649,-1.26505 -0.07406,-2.53562 4.43e-4,-3.80014 0.01372,-0.23264 0.274566,-0.41565 0.261665,-0.64835 -0.187397,-3.37658 -0.677933,-6.73205 -0.858639,-10.10901 -0.01791,-0.33477 0.294338,-0.63595 0.265766,-0.96997 -0.09181,-1.07361 -0.471016,-2.1054 -0.620052,-3.1726 -0.05831,-0.41745 -0.05004,-0.84607 4.04e-4,-1.26459 0.04024,-0.33371 0.266812,-0.63568 0.269268,-0.97183 0.0029,-0.40387 -0.214073,-0.78293 -0.253501,-1.18488 -0.27615,-2.81583 -0.357693,-5.65024 -0.692402,-8.45969 -0.01269,-0.10653 -0.246807,0.0423 -0.319756,-0.0363 -0.24313,-0.26215 -0.775124,-0.62714 -0.561535,-0.91385 0.363751,-0.48831 1.105812,-0.59638 1.713619,-0.63269 2.95192,-0.17633 5.91541,-0.0786 8.871529,3.6e-4 0.331787,0.009 0.628872,0.25043 0.960564,0.26227 0.123306,0.004 0.176334,-0.21542 0.299717,-0.21722 0.224636,-0.003 0.41801,0.21136 0.642532,0.20346 0.227158,-0.008 0.408066,-0.23578 0.635002,-0.24851 1.264721,-0.071 2.536087,-0.0825 3.800141,-4.5e-4 3.381164,0.21951 6.742431,0.70007 10.124534,0.90448 0.338692,0.0205 0.652596,-0.25782 0.990967,-0.2327 1.552521,0.11536 3.07682,0.48593 4.624954,0.6499 4.147064,0.43921 8.297913,0.85361 12.456955,1.15933 0.129654,0.01 0.196755,-0.18539 0.322067,-0.21997 0.206902,-0.0571 0.427613,-0.0461 0.642243,-0.0461 0.21463,0 0.435287,-0.0108 0.642227,0.0461 0.125061,0.0344 0.192513,0.23169 0.321602,0.21909 2.223915,-0.21725 4.422317,-0.6503 6.642896,-0.89941 0.31811,-0.0357 0.64619,-0.0205 0.9592,0.0465 0.122,0.0262 0.18052,0.18891 0.30046,0.22324 0.20631,0.0591 0.42752,0.0448 0.6421,0.0466 1.47871,0.0123 2.95991,0.0797 4.43626,-0.004 0.3321,-0.0189 0.61844,-0.31381 0.9509,-0.30273 2.85952,0.0954 5.70426,0.46051 8.56094,0.62012 0.84279,0.0471 1.6908,0.0657 2.53232,-4.3e-4 0.22661,-0.0178 0.40772,-0.24759 0.63501,-0.24847 0.22635,-8.9e-4 0.40758,0.24652 0.63392,0.2435 0.22586,-0.003 0.40609,-0.20719 0.62563,-0.26035 0.20858,-0.0505 0.42752,-0.0465 0.64212,-0.0465 0.42565,0 0.85641,-0.0245 1.27609,0.0465 0.12233,0.0207 0.18288,0.17954 0.3001,0.22025 0.10523,0.0365 0.2266,0.0289 0.33418,-3e-5 0.21738,-0.0584 0.39941,-0.2689 0.62422,-0.25763 1.9048,0.0955 3.78879,0.46218 5.69267,0.57434 0.12983,0.008 0.19472,-0.194 0.32212,-0.2201 0.31318,-0.0641 0.64157,-0.0865 0.95811,-0.0419 0.22463,0.0317 0.40642,0.21118 0.62673,0.26526 0.20843,0.0512 0.42758,0.0462 0.64219,0.0462 0.2146,0 0.43373,0.005 0.64214,-0.0462 0.22032,-0.0541 0.39993,-0.26178 0.62675,-0.26529 5.49244,-0.0852 10.98677,-0.0797 16.47927,0 0.22728,0.003 0.40797,0.23764 0.63502,0.24848 0.12299,0.006 0.19087,-0.16632 0.30826,-0.20349 0.10623,-0.0337 0.22807,-0.0337 0.33429,0 0.1174,0.0372 0.18519,0.2008 0.30832,0.20355 0.12309,0.003 0.19385,-0.19238 0.31694,-0.1897 0.12286,0.003 0.1906,0.1655 0.30751,0.20334 0.10989,0.0356 0.23118,0.0162 0.3464,0.008 2.523,-0.17291 5.03997,-0.44635 7.56671,-0.55057 0.22895,-0.009 0.4249,0.20972 0.65403,0.21164 0.12314,10e-4 0.19088,-0.16635 0.30827,-0.20355 0.10622,-0.0336 0.22899,-0.0364 0.33423,1.2e-4 0.1172,0.0407 0.18068,0.18646 0.30008,0.22022 0.20651,0.0584 0.42756,0.0462 0.64218,0.0462 0.2146,0 0.43372,0.005 0.64214,-0.0463 0.2203,-0.0541 0.40034,-0.25064 0.62673,-0.26526 1.15903,-0.0748 2.32523,-0.0739 3.48432,0 0.22589,0.0144 0.40001,0.2623 0.62636,0.2623 0.33191,0 0.63075,-0.22495 0.96055,-0.26227 0.31786,-0.036 0.66449,-0.0808 0.95859,0.045 0.13808,0.0591 0.12998,0.27731 0.14433,0.42682 0.0205,0.21313 0.0437,0.44467 -0.0418,0.64099 -0.079,0.18155 -0.25168,0.31577 -0.42001,0.42001 -0.0933,0.0578 -0.21668,0.0402 -0.32636,0.0423 -0.63306,0.012 -1.26936,0.0618 -1.89949,3e-5 -0.22623,-0.0222 -0.40793,-0.2384 -0.63501,-0.2485 -0.12367,-0.005 -0.18892,0.17523 -0.3087,0.20651 -0.20717,0.0542 -0.42995,0.0778 -0.64099,0.0417 -0.22986,-0.0392 -0.41574,-0.27292 -0.64867,-0.26194 -4.22722,0.20002 -8.43309,0.82346 -12.66449,0.89188 -1.38945,0.0225 -2.74174,-0.46335 -4.12246,-0.62045 -0.31728,-0.0361 -0.64356,-0.0184 -0.957,0.0425 -0.22269,0.0433 -0.40149,0.23825 -0.62671,0.26529 -0.52376,0.0629 -1.05883,0.0629 -1.58258,0 -0.22525,-0.027 -0.4029,-0.22858 -0.62677,-0.26529 -0.42002,-0.0689 -0.85044,-0.0425 -1.27605,-0.0469 -0.95044,-0.01 -1.90382,-0.0688 -2.85146,0.005 -0.22618,0.0176 -0.40645,0.21122 -0.62678,0.26529 -0.20841,0.0512 -0.42752,0.0462 -0.64212,0.0462 -0.21462,3e-5 -0.4348,0.009 -0.64223,-0.0461 -0.11963,-0.0318 -0.18484,-0.20649 -0.30862,-0.20649 -0.12381,0 -0.18892,0.1752 -0.30872,0.20649 -0.20717,0.0541 -0.43013,0.0788 -0.64099,0.0417 -0.2234,-0.0394 -0.40425,-0.22122 -0.62682,-0.26495 -0.31405,-0.0618 -0.639,-0.0469 -0.95909,-0.0469 -0.3201,0 -0.64508,-0.0149 -0.95913,0.0469 -0.2226,0.0438 -0.40004,0.25723 -0.62676,0.26529 -2.32251,0.0825 -4.64909,0.0776 -6.97191,0.004 -4.33461,-0.1365 -8.6592,-0.53436 -12.99481,-0.6333 -4.85798,-0.11087 -9.72096,-0.15143 -14.57772,0.004 -1.703762,0.0546 -3.377239,0.47861 -5.075565,0.62518 -0.7361,0.0635 -1.477745,0.015 -2.216507,0.004 -0.214585,-0.003 -0.433541,0.004 -0.642121,-0.0465 -0.219536,-0.0531 -0.399765,-0.26098 -0.625641,-0.26031 -0.335495,0.001 -0.635994,0.28436 -0.970932,0.26517 -3.113708,-0.17832 -6.216713,-0.51813 -9.317344,-0.85437 -2.486443,-0.26963 -4.949318,-0.74717 -7.441017,-0.96296 -0.338051,-0.0293 -0.651856,0.24476 -0.990952,0.23282 -6.019913,-0.21249 -12.030655,-0.6362 -18.048325,-0.90475 -0.424449,-0.0189 -0.854206,-0.0236 -1.273918,0.0424 -0.12228,0.0192 -0.184978,0.21206 -0.308651,0.20654 -0.227073,-0.0101 -0.40892,-0.22504 -0.635006,-0.2485 -0.569641,-0.0591 -1.390262,-0.46527 -1.718086,0.004 -0.647911,0.9281 -0.632915,2.20755 -0.616104,3.33929 0.05674,3.81662 0.516438,7.61689 0.835518,11.42054 0.08819,1.05117 0.300217,2.08963 0.38607,3.14099 0.04291,0.52539 0.06254,1.05807 -4.23e-4,1.58148 -0.0271,0.22522 -0.222008,0.40405 -0.265282,0.62677 -0.0609,0.31341 -0.07885,0.63974 -0.04248,0.95694 0.158397,1.38156 0.4738,2.74237 0.625137,4.12469 0.05736,0.52405 0.05513,1.05728 -4.24e-4,1.58152 -0.03546,0.33441 -0.286521,0.6361 -0.270294,0.97201 0.09189,1.90299 0.442986,3.78552 0.591732,5.68494 0.03323,0.42438 0.02445,0.85647 -0.04656,1.27621 -0.02066,0.12207 -0.178791,0.18256 -0.220013,0.29932 -0.03844,0.10889 -0.02397,0.23196 -0.0079,0.34631 0.161899,1.15384 0.441151,2.29242 0.541046,3.45325 0.01107,0.12845 -0.17519,0.19846 -0.216278,0.32068 -0.03681,0.1095 -0.02047,0.23163 -0.0081,0.34653 0.284859,2.63656 0.72121,5.25878 0.899532,7.90469 0.02237,0.33191 -0.264023,0.62054 -0.302711,0.95093 -0.04945,0.42233 -0.02778,0.85553 0.04208,1.27496 0.02037,0.12241 0.2239,0.17609 0.220203,0.30008 -0.0098,0.33069 -0.267891,0.62775 -0.257656,0.9584 0.09812,3.1742 0.574608,6.33362 0.581245,9.50931 0.0042,2.0091 -0.451519,3.99555 -0.5489,6.00232 -0.0114,0.23456 0.235779,0.43295 0.225235,0.66757 -0.21386,4.75507 -0.623688,9.49939 -0.896225,14.25147 -0.01225,0.21341 -0.0082,0.43219 0.04221,0.63992 0.05351,0.22046 0.249436,0.40045 0.265263,0.62674 0.07363,1.05322 0.07363,2.11411 0,3.16733 -0.01583,0.22629 -0.211872,0.40625 -0.265282,0.62674 -0.0504,0.2081 -0.07595,0.42962 -0.04175,0.64099 0.03629,0.22439 0.237694,0.40805 0.248238,0.6351 0.006,0.12924 -0.209587,0.20129 -0.203434,0.33054 0.105179,2.21426 0.43304,4.41433 0.534023,6.62878 0.0059,0.12906 -0.17577,0.19864 -0.217052,0.32108 -0.03693,0.10946 -0.01907,0.23147 -0.0081,0.34649 0.180626,1.8967 0.500924,3.78256 0.582657,5.6861 0.01422,0.33148 -0.298553,0.61801 -0.29776,0.9498 8.13e-4,0.33294 0.257389,0.62207 0.302365,0.95196 0.04318,0.31674 0.02225,0.64493 -0.04192,0.95807 -0.02614,0.1275 -0.225063,0.19223 -0.220459,0.3223 0.100983,2.84723 0.433411,5.68313 0.534393,8.53036 0.0046,0.13007 -0.185734,0.19684 -0.220459,0.32227 -0.05722,0.20685 -0.04643,0.42755 -0.04643,0.64221 0,0.42566 -0.02066,0.85577 0.04643,1.27612 0.01952,0.12226 0.206551,0.18488 0.206551,0.30866 0,0.12384 -0.182717,0.18719 -0.206551,0.30865 -0.06152,0.31372 -0.08303,0.64105 -0.04192,0.95807 0.02923,0.2254 0.254117,0.40778 0.248509,0.63501 -0.0048,0.1936 -0.150063,0.36438 -0.27681,0.5108 -0.12532,0.14478 -0.625179,0.24268 -0.461502,0.34205 0.617134,0.37463 1.365906,0.47839 2.070709,0.63482 1.098401,0.24372 2.206204,0.47724 3.328034,0.56305 0.224945,0.0172 0.405224,-0.20807 0.624634,-0.26062 0.207904,-0.0498 0.426986,-0.0608 0.639961,-0.0422 0.849457,0.0743 1.687538,0.2583 2.53799,0.32037 3.376191,0.24628 6.762101,0.34717 10.137497,0.60425 2.120285,0.16144 4.226883,0.47442 6.345971,0.65106 0.318214,0.0265 0.644233,0.0218 0.957031,-0.0424 0.127426,-0.0262 0.192261,-0.22681 0.322189,-0.22021 3.819657,0.19317 7.632912,0.50238 11.444618,0.81543 3.686119,0.30279 7.361252,0.73083 11.047503,1.03192 0.52542,0.0429 1.05818,0.0631 1.5815,-4.3e-4 0.33136,-0.0403 0.61988,-0.28717 0.95306,-0.30737 1.36983,-0.0831 2.74527,-0.0395 4.11708,-4.3e-4 5.41266,0.15417 10.82511,0.33057 16.2342,0.58032 10.54602,0.48688 21.07854,1.27466 31.62984,1.62964 5.59518,0.18817 11.19692,0.0466 16.79508,-6.7e-4 0.15019,-10e-4 0.32078,-0.0383 0.42671,-0.14471 0.0769,-0.0773 0.0507,-0.21619 0.0403,-0.32471 -0.18305,-1.90521 -0.45788,-3.80121 -0.61994,-5.70831 -0.0446,-0.52527 -0.0584,-1.05762 4.4e-4,-1.58149 0.0254,-0.22589 0.23841,-0.40789 0.24851,-0.63501 0.005,-0.12365 -0.19046,-0.18591 -0.20654,-0.30865 -0.0689,-0.526 -0.088,-1.06244 -0.0423,-1.59094 0.052,-0.60193 0.27123,-1.18055 0.33376,-1.78144 0.67434,-6.48129 1.46403,-12.95535 1.87616,-19.45858 0.21376,-3.37296 0.0918,-6.76069 -4.4e-4,-10.13916 -0.009,-0.33283 -0.29352,-0.61915 -0.3024,-0.952 -0.006,-0.2258 0.22938,-0.40189 0.26033,-0.62564 0.0728,-0.52622 0.0699,-1.06232 0.0465,-1.59305 -0.011,-0.2514 0.0604,-0.60049 -0.14901,-0.74002 -0.18618,-0.12405 -0.41436,0.18002 -0.6349,0.21765 -0.21655,0.0369 -0.45434,0.0829 -0.65903,0.003 -0.28651,-0.11163 -0.52192,-0.33349 -0.74144,-0.54882 -0.049,-0.0481 -0.077,-0.15799 -0.0263,-0.20426 0.43421,-0.3959 0.86365,-0.84207 1.41028,-1.05765 0.43427,-0.17126 1.28255,0.40143 1.39952,-0.0505 0.64929,-2.50833 0.49021,-5.16049 0.61922,-7.74826 0.007,-0.13504 -0.23108,-0.20908 -0.21582,-0.34342 0.10916,-0.96051 0.43081,-1.88647 0.57785,-2.84192 0.0325,-0.21133 0.0139,-0.43368 -0.042,-0.64007 -0.0339,-0.12497 -0.23573,-0.19287 -0.21846,-0.32123 0.10394,-0.77209 0.34729,-1.51993 0.56696,-2.26736 0.0489,-0.16654 0.13292,-0.3245 0.23585,-0.46427 0.0645,-0.0875 0.15257,-0.23785 0.25545,-0.20273 0.25569,0.0873 0.37584,0.42353 0.63307,0.50623 0.11728,0.0377 0.19099,-0.16641 0.30844,-0.20358 0.10626,-0.0336 0.23683,-0.0537 0.33434,3e-4 0.17253,0.0955 0.38563,0.22278 0.41964,0.41702 0.12787,0.73066 0.0875,1.48444 0.0427,2.22486 -0.13432,2.21917 -0.45982,4.4245 -0.57956,6.64453 -0.007,0.12921 0.24445,0.20795 0.20339,0.33069 -0.0862,0.25775 -0.47511,0.35791 -0.52323,0.62545 -0.15011,0.83475 -0.0467,1.69584 -0.0468,2.54398 -2e-5,0.2146 -0.009,0.43475 0.0464,0.64215 0.0319,0.11966 0.20826,0.18488 0.20661,0.30869 -0.002,0.17825 -0.32735,0.34857 -0.21718,0.48871 0.24757,0.31488 0.65958,0.50915 1.05446,0.57626 0.26961,0.0458 0.71091,4e-4 0.7764,-0.26514 0.44654,-1.81048 0.55714,-3.69327 0.65915,-5.5552 0.0182,-0.33216 -0.28682,-0.61863 -0.30271,-0.9509 -0.0858,-1.79291 -0.11938,-3.5939 -4.3e-4,-5.38492 0.0697,-1.04861 0.25447,-2.09763 0.56412,-3.10187 0.0711,-0.23068 0.3035,-0.52566 0.54083,-0.4816 0.33973,0.0631 0.59858,0.40763 0.7453,0.72043 0.13575,0.2894 0.0672,0.63941 0.042,0.95804 -0.0116,0.14597 -0.0306,0.32877 -0.1506,0.4126 -0.0734,0.0513 -0.21277,-0.24252 -0.22057,-0.15332 -0.36061,4.12723 -0.63878,8.26224 -0.8495,12.39984 -0.0107,0.21008 0.18854,0.39224 0.18732,0.60257 -5.2e-4,0.0875 -0.2773,0.16006 -0.1919,0.17905 1.71236,0.3807 3.43717,0.72812 5.17969,0.92984 0.23016,0.0267 0.41481,-0.25318 0.6465,-0.25531 0.22633,-0.002 0.40787,0.23074 0.63386,0.24356 0.12294,0.007 0.19408,-0.1973 0.31697,-0.18973 0.22689,0.014 0.40964,0.21912 0.63503,0.24853 0.4183,0.0546 0.84572,0.0406 1.26559,-3e-4 0.1514,-0.0147 0.4363,-0.0128 0.42562,-0.16452 -0.26073,-3.70703 -0.87934,-7.38117 -1.21663,-11.08203 -0.0671,-0.73618 -0.0678,-1.482 0.005,-2.21768 0.0327,-0.33219 0.26995,-0.62137 0.30736,-0.95307 0.0786,-0.69604 -0.16324,-1.42993 0.0373,-2.10107 0.0879,-0.29437 0.46092,-0.43216 0.75034,-0.53519 0.0947,-0.0337 0.1987,0.0909 0.24035,0.18244 0.21706,0.47711 0.41301,0.97116 0.5181,1.48468 0.0336,0.16394 -0.0319,0.34317 -0.11423,0.48886 -0.1047,0.18536 -0.34555,0.27725 -0.42912,0.47308 -0.0842,0.19739 -0.0456,0.42755 -0.0468,0.64215 -0.013,2.32361 -0.12749,4.65097 0.004,6.97086 0.0787,1.38836 0.47593,2.74209 0.62516,4.12466 0.0456,0.42243 0.0275,0.85483 -0.0425,1.27393 -0.0204,0.12234 -0.20245,0.17727 -0.22021,0.30005 -0.0233,0.16156 0.0287,0.33486 0.10777,0.47769 0.0669,0.12097 0.17534,0.24252 0.30945,0.27621 0.31001,0.0778 0.63923,0.0657 0.95801,0.0421 0.14979,-0.0111 0.32057,-0.0384 0.4268,-0.14463 0.0778,-0.0778 0.0441,-0.21695 0.0448,-0.32696 0.0144,-2.11185 0.14959,-4.22907 6e-4,-6.3357 -0.16556,-2.341 -0.68782,-4.64419 -0.94211,-6.9772 -0.046,-0.42242 -0.0712,-0.86468 0.0427,-1.27402 0.0539,-0.1936 0.23035,-0.39721 0.42964,-0.42288 0.17797,-0.023 0.39704,0.13645 0.4395,0.31079 0.28095,1.15302 0.39104,2.34351 0.4953,3.52567 0.34198,3.87741 -0.63197,8.04468 0.8429,11.64691 0.49571,1.21075 2.61737,0.0421 3.92492,-0.002 0.15014,-0.005 0.41028,0.005 0.42679,-0.14463 0.15116,-1.36746 0.12967,-2.75387 0.0454,-4.12707 -0.11076,-1.80557 -0.51445,-3.58493 -0.62921,-5.39023 -0.0938,-1.4758 -0.0429,-2.95831 0.004,-4.43631 0.005,-0.16479 0.066,-0.33026 0.15285,-0.4704 0.0728,-0.11749 0.17657,-0.23804 0.30949,-0.27585 0.20871,-0.0594 0.46001,-0.10043 0.65094,0.003 0.13214,0.0713 0.13,0.27725 0.14441,0.42676 0.0205,0.2131 0.009,0.43283 -0.0416,0.64093 -0.0534,0.22049 -0.24415,0.40088 -0.26526,0.62674 -0.0687,0.73526 -0.0552,1.47897 -4.5e-4,2.21539 0.2711,3.64825 0.10376,7.37887 0.97744,10.93137 0.13622,0.55386 1.14203,0.039 1.71113,6.4e-4 0.14985,-0.0101 0.39741,0.003 0.42677,-0.14466 0.14497,-0.72766 0.13348,-1.48868 0.0454,-2.22537 -0.31757,-2.65689 -1.01299,-5.26355 -1.25903,-7.92801 -0.17476,-1.89261 -0.0672,-3.80252 4.1e-4,-5.70196 0.007,-0.207 0.22639,-0.3729 0.22308,-0.57999 -0.002,-0.097 -0.13846,-0.1633 -0.23511,-0.17145 -4.38656,-0.3706 -8.78433,-0.59857 -13.17155,-0.96124 -2.08003,-0.17194 -4.15807,-0.37747 -6.2283,-0.64243 -1.30448,-0.16696 -2.58414,-0.5054 -3.89098,-0.65261 -0.62887,-0.0708 -1.26916,-0.0658 -1.89854,4.2e-4 -0.2256,0.0238 -0.40403,0.22211 -0.62671,0.26529 -0.31381,0.0609 -0.63935,0.0667 -0.95804,0.042 -0.16437,-0.0127 -0.33022,-0.066 -0.47037,-0.1528 -0.11751,-0.0728 -0.24254,-0.17538 -0.276,-0.30948 -0.0687,-0.27508 -0.11587,-0.58609 -0.0135,-0.85049 0.0862,-0.22263 0.50246,-0.24496 0.52956,-0.48215 0.0474,-0.41537 -0.25748,-0.79767 -0.33643,-1.20822 -0.47026,-2.44528 -0.9207,-4.89508 -1.31025,-7.35452 -0.78199,-4.93714 -1.52608,-9.88071 -2.20406,-14.83319 -0.25972,-1.89707 -0.44501,-3.8042 -0.60855,-5.71198 -0.65782,-7.67334 -1.17839,-15.35815 -1.85539,-23.02981 -0.0136,-0.154 -0.28881,-0.27698 -0.21328,-0.41187 0.24315,-0.43429 0.64267,-0.77261 1.04242,-1.06915 0.12223,-0.0907 0.42073,-0.18985 0.45472,-0.0415 0.36842,1.60923 0.47699,3.26777 0.65956,4.90851 0.0236,0.21244 0.008,0.43201 -0.0422,0.6399 -0.0525,0.21939 -0.27848,0.39968 -0.26064,0.6246 0.59905,7.55594 1.28476,15.10617 2.10521,22.6413 0.41527,3.8139 1.00655,7.60736 1.60106,11.39746 0.71541,4.56082 1.08594,9.20636 2.32828,13.65268 0.12866,0.46044 0.9243,-0.31443 1.4022,-0.3014 0.71936,0.0196 1.40897,0.30011 2.122,0.39728 3.82503,0.52118 7.64612,1.09107 11.48909,1.45731 0.33473,0.0319 0.63722,-0.23828 0.97198,-0.26978 0.63004,-0.0593 1.26863,-0.062 1.89842,-4.2e-4 1.3749,0.13449 2.72498,0.48318 4.10248,0.58746 0.22762,0.0172 0.41968,-0.19617 0.64571,-0.22803 0.42071,-0.0593 0.85081,-0.0813 1.27389,-0.0425 1.6975,0.15576 3.37091,0.63284 5.07554,0.62515 2.90695,-0.0131 5.80627,-0.35189 8.69383,-0.68734 0.25212,-0.0293 0.48057,-0.20829 0.64914,-0.39804 0.0748,-0.0843 0.007,-0.22535 0.005,-0.33802 -0.20752,-11.51544 -0.43291,-23.03058 -0.63334,-34.54614 -0.009,-0.52783 -0.0598,-1.05975 0.005,-1.58374 0.0407,-0.33127 0.3076,-0.61932 0.30701,-0.95309 -9.5e-4,-0.53797 -0.27681,-1.04676 -0.31149,-1.58359 -0.0681,-1.05396 -0.0751,-2.1153 0.004,-3.16843 0.0251,-0.33282 0.25224,-0.62387 0.30702,-0.95315 0.0352,-0.21122 0.009,-0.4329 -0.0418,-0.641 -0.0534,-0.22049 -0.248,-0.40057 -0.26526,-0.62677 -0.0723,-0.94738 -0.0723,-1.90298 2e-5,-2.85037 0.0173,-0.22619 0.21112,-0.4064 0.26524,-0.62671 0.0512,-0.2084 0.045,-0.42752 0.0465,-0.64212 0.0124,-1.69 0.0829,-3.38238 -0.004,-5.07016 -0.0172,-0.33337 -0.27275,-0.62106 -0.30731,-0.95306 -0.055,-0.52802 -0.0766,-1.07462 0.0423,-1.59198 0.0444,-0.19296 0.25147,-0.31616 0.42012,-0.41989 0.0927,-0.057 0.2159,-0.0483 0.32415,-0.0378 2.96162,0.28943 5.90261,0.88281 8.87783,0.93704 2.75438,0.0502 5.49192,-0.44446 8.24083,-0.62485 0.21332,-0.014 0.43316,-0.0121 0.63994,0.0421 0.11977,0.0314 0.18494,0.20324 0.3087,0.20657 0.12308,0.003 0.19403,-0.1973 0.31691,-0.1897 0.22689,0.014 0.40796,0.23865 0.63506,0.24854 1.68806,0.0735 3.38113,0.0786 5.06895,0 0.22661,-0.0106 0.40644,-0.21112 0.62673,-0.26529 0.20843,-0.0512 0.42761,-0.0442 0.64222,-0.0465 1.0561,-0.0117 2.11463,-0.0657 3.16846,0.004 0.22678,0.0151 0.40794,0.2377 0.63498,0.24851 0.12299,0.006 0.19083,-0.16635 0.3082,-0.20352 0.10623,-0.0336 0.22891,-0.0361 0.33432,6e-5 0.11668,0.04 0.17625,0.21725 0.29962,0.21725 0.33072,0 0.6374,-0.21725 0.96812,-0.21725 0.1234,0 0.18303,0.17724 0.29976,0.21725 0.10539,0.0361 0.22896,0.0365 0.3342,0 0.1172,-0.0407 0.17836,-0.19589 0.3,-0.22021 0.36107,-0.0722 0.86971,0.22455 1.10295,-0.0604 0.44671,-0.54562 0.52723,-1.32608 0.60584,-2.02685 0.0375,-0.33408 -0.24956,-0.63623 -0.26944,-0.9718 -0.0564,-0.95173 -0.0908,-1.91574 0.0423,-2.85978 0.0276,-0.19604 0.25141,-0.31631 0.42015,-0.41986 0.093,-0.0571 0.2171,-0.0525 0.32518,-0.0374 0.16245,0.0226 0.3295,0.0621 0.46929,0.14783 0.11781,0.0723 0.26785,0.1715 0.27601,0.30947 0.10967,1.85343 -0.26681,3.74405 0.0719,5.56958 0.0753,0.4061 0.77226,0.33475 1.07552,0.61509 0.12272,0.11349 0.2072,0.34674 0.11718,0.48758 -0.16696,0.26123 -0.48419,0.3984 -0.76602,0.52761 -0.49392,0.22648 -1.00027,0.48111 -1.54139,0.53031 -0.43682,0.0397 -0.84873,-0.2612 -1.28719,-0.27316 -2.85113,-0.0779 -5.70561,-0.0783 -8.55661,0.004 -0.22626,0.007 -0.40025,0.2518 -0.62636,0.26233 -0.22441,0.0104 -0.41797,-0.21051 -0.64251,-0.20346 -0.22625,0.007 -0.4077,0.25195 -0.6339,0.24356 -0.33273,-0.0124 -0.61925,-0.29132 -0.95201,-0.30243 -2.74503,-0.0916 -5.49314,-0.0175 -8.23964,-0.004 -0.21462,10e-4 -0.43375,-0.005 -0.64217,0.0466 -0.2203,0.0541 -0.4003,0.25164 -0.62675,0.26525 -1.26444,0.0759 -2.53566,0.0753 -3.80016,4.3e-4 -2.2254,-0.1318 -4.4349,-0.46924 -6.6591,-0.61993 -0.14868,-0.01 -0.42172,-0.009 -0.42461,0.14004 -0.15712,8.13654 -0.0486,16.27609 -0.0495,24.41416 -1e-5,0.21457 -0.005,0.43368 0.0466,0.64209 0.0541,0.22033 0.25144,0.40033 0.26525,0.62677 0.0771,1.26507 0.0161,2.53491 0.005,3.80227 -0.003,0.3201 0.0149,0.64508 -0.0469,0.95914 -0.0438,0.22259 -0.26155,0.39993 -0.26527,0.62677 -0.0865,5.28146 -0.14514,10.56625 -0.005,15.84656 0.0678,2.54406 0.481,5.06827 0.62925,7.60891 0.0615,1.05362 0.0877,2.11451 -4.5e-4,3.16623 -0.0198,0.23621 -0.1483,0.47074 -0.31833,0.6359 -0.12303,0.11954 -0.37715,0.27872 -0.49187,0.15118 -0.38902,-0.4324 -0.2655,-1.2861 -0.77746,-1.5621 -0.60767,-0.32764 -1.393,-0.10388 -2.07094,0.0265 -0.39673,0.0763 -0.98317,0.18121 -1.06603,0.57663 -0.31503,1.50345 -0.12767,3.07586 -0.0204,4.60821 0.20031,2.86277 0.8392,5.68973 0.94174,8.55765 0.0264,0.73825 -0.31166,1.4484 -0.55904,2.1445 -0.0573,0.16129 -0.25957,0.23383 -0.33986,0.38498 -0.0512,0.0964 -0.052,0.2171 -0.0372,0.3252 0.0202,0.14795 0.0342,0.32 0.13971,0.42556 0.0774,0.0774 0.21873,0.0627 0.32578,0.04 0.2214,-0.0469 0.40756,-0.24423 0.63388,-0.24331 0.22728,9.1e-4 0.40866,0.22726 0.63496,0.24847 0.53143,0.0498 1.08093,0.082 1.60083,-0.0388 0.3463,-0.0805 0.593,-0.39789 0.91609,-0.54623 0.10593,-0.0486 0.23746,-0.0711 0.34799,-0.0342 0.15624,0.0522 0.39336,0.12094 0.40351,0.28537 0.66871,10.84347 1.02697,21.7041 1.62158,32.55191 0.0574,1.04736 0.28366,2.0813 0.33421,3.12903 0.061,1.26489 0.0644,2.53436 2e-5,3.79907 -0.15975,3.13653 -0.39112,6.26971 -0.67221,9.39764 -0.0273,0.30347 -0.53875,0.77789 -0.25127,0.87885 1.76465,0.61956 3.66119,0.82727 5.52576,0.97308 2.31654,0.18115 4.64805,0.0651 6.97088,0.004 4.9009,-0.12872 9.79993,-0.33234 14.69658,-0.57324 3.66231,-0.18018 7.31339,-0.58307 10.97859,-0.68988 4.22312,-0.12311 8.45093,-0.0949 12.67478,4.2e-4 0.33374,0.008 0.61941,0.30707 0.95322,0.30701 0.53695,0 1.04501,-0.33319 1.58132,-0.30713 10.36219,0.50324 20.69733,1.53607 31.06559,1.8927 8.02398,0.27594 16.05749,0.0178 24.08624,0.004 0.21457,-3.7e-4 0.4335,0.004 0.64206,-0.0466 0.21957,-0.0531 0.39987,-0.26562 0.62573,-0.26031 0.33197,0.008 0.61881,0.28961 0.95081,0.29742 0.2258,0.005 0.40609,-0.20715 0.62561,-0.26031 0.20862,-0.0505 0.42758,-0.0465 0.64224,-0.0465 0.32007,0 0.64502,-0.0153 0.95908,0.0465 0.22262,0.0438 0.4002,0.25402 0.6268,0.26525 1.26892,0.063 2.54962,0.10547 3.81112,-0.045 0.14914,-0.0178 0.13181,-0.27716 0.14463,-0.42682 0.036,-0.42029 0.058,-0.84765 1.8e-4,-1.2655 -0.0458,-0.33063 -0.28046,-0.62036 -0.30737,-0.95306 -0.0765,-0.94703 -0.0711,-1.9029 0,-2.85035 0.0175,-0.23266 0.26638,-0.41552 0.26266,-0.6488 -0.0936,-5.84991 -0.3194,-11.69727 -0.55365,-17.54324 -0.27188,-6.78409 -0.52338,-13.57056 -0.96472,-20.34574 -0.31613,-4.85293 -0.97373,-9.6792 -1.30719,-14.53094 -0.4104,-5.9711 -0.63638,-11.95346 -0.92401,-17.93173 -0.0202,-0.42102 -0.0502,-0.84604 4.3e-4,-1.2645 0.0404,-0.33386 0.27096,-0.63574 0.27023,-0.97205 -0.002,-1.00106 -0.22855,-1.99041 -0.27912,-2.9902 -0.46231,-9.1377 -0.93936,-18.27545 -1.25933,-27.41925 -0.0997,-2.84973 -0.0918,-5.70444 4.2e-4,-8.55441 0.0108,-0.33362 0.29541,-0.61945 0.30738,-0.95301 0.0818,-2.28372 0.29678,-4.59347 -0.0276,-6.8555 -0.0648,-0.45163 -0.6463,-0.69378 -1.07672,-0.84512 -0.21335,-0.075 -0.4072,0.25391 -0.63315,0.24387 -0.56272,-0.025 -1.09439,-0.28238 -1.65408,-0.34558 -3.14197,-0.35498 -6.292,-0.63752 -9.44236,-0.90808 -0.21301,-0.0183 -0.43405,-0.0153 -0.63995,0.0422 -0.11954,0.0334 -0.17606,0.21997 -0.30014,0.22025 -0.33075,7.9e-4 -0.63742,-0.21799 -0.96817,-0.21723 -0.12402,3.1e-4 -0.18057,0.18646 -0.29993,0.22022 -0.20651,0.0584 -0.42755,0.0462 -0.64215,0.0462 -0.21463,0 -0.43378,0.005 -0.64224,-0.0463 -0.22028,-0.0541 -0.40149,-0.23813 -0.62671,-0.26526 -0.52338,-0.063 -1.05609,-0.0436 -1.58148,-4.3e-4 -1.95355,0.16061 -3.90341,0.36957 -5.84863,0.61127 -0.48075,0.0598 -0.93943,0.27658 -1.42359,0.29239 -0.23453,0.008 -0.43292,-0.23484 -0.66733,-0.22413 -2.10727,0.0961 -4.19561,0.54206 -6.30505,0.54206 -1.39514,3e-5 -2.7587,-0.44107 -4.15018,-0.54196 -0.12304,-0.009 -0.18216,0.17712 -0.29809,0.21939 -0.15039,0.0548 -0.3913,-0.073 -0.47617,0.0628 -0.32355,0.5177 -0.3172,1.19696 -0.63635,1.71738 -0.0878,0.14316 -0.33872,0.19235 -0.48963,0.11874 -0.21456,-0.1047 -0.39221,-0.33456 -0.43426,-0.56961 -0.3288,-1.83679 -0.64063,-3.69275 -0.66275,-5.55859 -0.0112,-0.9466 0.23721,-1.89496 0.56393,-2.78345 0.0675,-0.18359 0.34705,-0.21124 0.54221,-0.22455 M 117.19279,460.0127 c 0,0 0,0 0,0 1.02353,0.27487 2.02071,0.68014 3.07062,0.82461 0.39479,0.0543 0.78963,-0.35641 1.17102,-0.24087 0.29734,0.0901 0.54043,0.44866 0.54043,0.75933 0,0.31083 -0.239,0.68402 -0.54043,0.75992 -0.78798,0.19837 -1.62931,0.0723 -2.43769,-0.0102 -0.30768,-0.0314 -0.56792,-0.2533 -0.86825,-0.32721 -0.86175,-0.21201 -1.72238,-0.50003 -2.60937,-0.52838 -0.15122,-0.005 -0.15943,0.30069 -0.10453,0.44165 0.42007,1.07867 1.14924,2.02942 1.49685,3.13354 0.16118,0.512 0.1773,1.10486 -0.003,1.61026 -0.14708,0.41132 -0.56131,0.67981 -0.90975,0.94327 -0.13348,0.10092 -0.32803,0.16052 -0.48884,0.11426 -1.04146,-0.29977 -2.04913,-0.71112 -3.04771,-1.13226 -0.0994,-0.0419 -0.18836,-0.13819 -0.21346,-0.24308 -0.0504,-0.2106 -0.0793,-0.44809 -1.7e-4,-0.64969 0.072,-0.18338 0.22396,-0.44525 0.41891,-0.4169 0.88199,0.12818 1.67857,0.60416 2.53627,0.84644 0.0485,0.0137 0.10966,-0.0474 0.11542,-0.0974 0.0371,-0.32285 0.11882,-0.66941 0.008,-0.97489 -0.39486,-1.08847 -1.1284,-2.03665 -1.49852,-3.13379 -0.13797,-0.40893 -0.0992,-0.87579 0.005,-1.2947 0.0476,-0.1922 0.25168,-0.31577 0.42,-0.42002 0.0933,-0.0578 0.21669,-0.0436 0.32639,-0.0423 m -6.5632,1.04272 c 0,0 0,0 0,0 0.46341,0.25412 0.97588,0.4343 1.39026,0.76236 0.55247,0.43741 1.08147,0.92847 1.47967,1.50986 0.12251,0.17886 0.10768,0.46225 0,0.65042 -0.21707,0.37933 -0.5479,0.70004 -0.91154,0.9425 -0.10809,0.0721 -0.3163,0.0319 -0.38132,-0.0805 -0.25106,-0.4343 -0.20736,-1.00785 -0.48818,-1.42353 -0.20195,-0.29895 -0.56352,-0.46218 -0.88976,-0.61621 -0.49156,-0.23208 -1.00426,-0.44976 -1.54163,-0.53177 -0.6391,-0.0975 -1.308,-0.1379 -1.93948,6.1e-4 -0.63767,0.13987 -1.22241,0.47696 -1.78068,0.81534 -0.27027,0.16385 -0.50758,0.39957 -0.67043,0.67044 -0.27541,0.45807 -0.45225,0.9711 -0.62138,1.47812 -0.20799,0.62351 -0.55118,1.24964 -0.50733,1.90546 0.0571,0.854 0.48693,1.64319 0.79793,2.44058 0.38036,0.97522 0.83163,1.9216 1.27353,2.87055 0.19728,0.42364 0.37902,0.86023 0.64329,1.24563 0.17828,0.26001 0.3995,0.50507 0.66915,0.6684 0.55842,0.33816 1.16125,0.60928 1.78074,0.81531 0.21222,0.0706 0.45872,0.0706 0.67095,0 0.61948,-0.20603 1.20155,-0.5141 1.78075,-0.81531 0.22374,-0.11634 0.43699,-0.25998 0.6202,-0.43326 0.27686,-0.2619 0.37121,-0.90451 0.75005,-0.86292 0.42084,0.0462 0.5832,0.63688 0.74687,1.02732 0.0644,0.15359 -0.0171,0.35013 -0.11221,0.48688 -0.19724,0.28369 -0.45097,0.53402 -0.73471,0.73117 -0.38336,0.26638 -0.82121,0.44537 -1.24384,0.64364 -0.3837,0.18003 -0.75359,0.43033 -1.17315,0.49033 -0.74436,0.10644 -1.51221,0.1116 -2.25582,0 -0.41904,-0.0629 -0.78994,-0.31223 -1.16301,-0.51312 -0.32743,-0.17633 -0.68827,-0.33292 -0.93109,-0.61457 -0.43453,-0.50403 -0.75723,-1.09939 -1.05823,-1.6929 -0.56413,-1.11233 -1.06838,-2.2558 -1.53163,-3.41376 -0.31565,-0.78906 -0.64839,-1.58426 -0.802144,-2.42004 -0.117019,-0.63605 -0.09643,-1.30063 0,-1.94009 0.08131,-0.53919 0.310294,-1.04822 0.526144,-1.54895 0.26918,-0.62449 0.50289,-1.28519 0.92523,-1.81815 0.33188,-0.41882 0.80037,-0.72971 1.28019,-0.96497 0.57089,-0.27987 1.19081,-0.50256 1.82428,-0.55706 m 176.96141,0.77215 c 0,0 0,0 0,0 0.004,0.85703 0.11953,1.72074 0.0126,2.57108 -0.17111,1.36065 -0.50738,2.69711 -0.84228,4.02697 -0.0233,0.0925 -0.12415,0.17038 -0.21842,0.18491 -0.31857,0.049 -0.66629,0.11365 -0.96695,-0.003 -0.14014,-0.0541 -0.12939,-0.27744 -0.14438,-0.42688 -0.0218,-0.21668 -0.005,-0.43836 0.0361,-0.65232 0.35589,-1.87298 0.61853,-3.772 1.15234,-5.60223 0.0556,-0.19076 0.35153,-0.21158 0.54922,-0.23175 m -71.86276,1.44217 c 0,0 0,0 0,0 -1.39731,0.13309 -2.7894,0.34351 -4.19192,0.39923 -0.12987,0.005 -0.19323,-0.20242 -0.32201,-0.21985 -0.53116,-0.0718 -1.09387,-0.19455 -1.60744,-0.0412 -0.32397,0.0967 -0.65342,0.39676 -0.70297,0.73124 -0.21942,1.48092 -0.21339,3.00048 -0.0707,4.49078 0.37094,3.87384 0.43285,7.85355 1.608,11.56348 0.20552,0.64883 1.37587,0.10006 2.0414,-0.0425 0.14575,-0.0312 0.15511,-0.2764 0.13998,-0.42469 -0.15827,-1.55255 -0.50605,-3.08221 -0.65589,-4.63559 -0.26833,-2.78173 -0.43587,-5.57263 -0.5979,-8.36255 -0.0249,-0.42773 -0.0469,-0.86474 0.0376,-1.28479 0.10344,-0.51409 0.3035,-1.00714 0.51967,-1.48495 0.0398,-0.0879 0.15827,-0.2377 0.23102,-0.17435 0.31952,0.27829 0.5365,0.66053 0.74844,1.02741 0.0564,0.0976 0.0393,0.2232 0.0391,0.33594 -8.4e-4,0.42498 0.0256,0.85473 -0.0423,1.27426 -0.0362,0.22393 -0.25338,0.4002 -0.26529,0.62674 -0.0775,1.47601 -0.0861,2.95852 -4.2e-4,4.43408 0.12045,2.07562 0.3771,4.14154 0.61793,6.20669 0.0555,0.4755 0.13591,0.95102 0.27034,1.41047 0.0676,0.23104 0.29076,0.87973 0.33034,0.64224 0.15714,-0.94272 0.11354,-1.91397 0.0405,-2.86695 -0.12232,-1.59512 -0.54462,-3.16076 -0.62517,-4.75857 -0.12787,-2.53644 -0.23493,-5.0903 0.001,-7.61899 0.0329,-0.35202 0.43161,-0.79465 0.77749,-0.72143 0.41832,0.0885 0.69129,0.61965 0.74561,1.04379 0.035,0.27347 -0.38948,0.39767 -0.53069,0.63449 -0.0562,0.0942 -0.0416,0.21667 -0.0423,0.32635 -0.0135,2.11191 -0.1429,4.22867 -4.4e-4,6.33579 0.18292,2.70566 0.49928,5.40704 0.97484,8.07684 0.0268,0.15042 0.31225,0.01 0.45668,-0.0402 0.17554,-0.0607 0.36256,-0.1394 0.47963,-0.28363 0.34913,-0.43005 0.73981,-0.87021 0.88998,-1.40341 0.17247,-0.61234 0.0989,-1.27432 0.0427,-1.90796 -0.15619,-1.75992 -0.50167,-3.49893 -0.67853,-5.2569 m -25.04413,-7.75607 c 0,0 0,0 0,0 0.004,0.32883 0.0617,0.66128 0.0127,0.98648 -0.14374,0.95431 -0.46117,1.87817 -0.58824,2.83487 -0.056,0.42117 -0.0254,0.85452 0.0425,1.27396 0.0362,0.22393 0.2587,0.39999 0.26524,0.62673 0.0825,2.85038 0.15644,5.7074 3.7e-4,8.55466 -0.0291,0.53174 -0.32523,1.01731 -0.55145,1.49939 -0.0423,0.0902 -0.14283,0.21304 -0.23734,0.18158 -0.18577,-0.0619 -0.32147,-0.23825 -0.42746,-0.40289 -0.0594,-0.0923 -0.042,-0.21674 -0.042,-0.32645 -5e-5,-0.21411 -0.009,-0.43289 0.0418,-0.64096 0.0534,-0.22052 0.25784,-0.40005 0.26527,-0.6268 0.0831,-2.53387 0.0173,-5.07053 0.005,-7.60574 -0.002,-0.32007 0.0149,-0.64505 -0.0469,-0.95911 -0.0438,-0.22256 -0.22753,-0.40305 -0.26528,-0.62671 -0.0526,-0.31149 -0.0456,-0.63504 -4.2e-4,-0.94766 0.17463,-1.20703 0.3338,-2.42346 0.65825,-3.59912 0.0496,-0.1799 0.25216,-0.30872 0.43296,-0.35498 m 87.57656,0.3948 c 0,0 0,0 0,0 0.78378,0.36295 1.59576,0.67038 2.35141,1.08881 0.20965,0.11612 0.32312,0.35886 0.51709,0.49966 0.41186,0.29901 0.93606,0.44986 1.2919,0.81372 0.12515,0.128 0.12054,0.38285 0.0283,0.53632 -0.18375,0.30582 -0.44687,0.83469 -0.78665,0.7258 -1.07862,-0.34564 -1.81015,-1.38663 -2.82773,-1.88403 -0.69568,-0.34006 -1.47211,-0.5542 -2.24533,-0.5958 -0.81272,-0.0437 -1.65311,0.0647 -2.41721,0.345 -0.28888,0.10596 -0.51578,0.43686 -0.548,0.74289 -0.15616,1.48276 -0.13611,2.98804 -0.001,4.4729 0.0383,0.422 0.31179,0.79019 0.51312,1.16303 0.17834,0.33029 0.38126,0.65072 0.62183,0.93884 0.29635,0.35498 0.62252,0.68869 0.98092,0.98087 0.25153,0.20507 0.51938,0.42627 0.83542,0.5 0.41983,0.0979 0.86871,0.0712 1.2933,-0.003 0.13639,-0.024 0.24338,-0.15595 0.30857,-0.27811 0.0471,-0.0883 0.0491,-0.2131 -3e-5,-0.30032 -0.0673,-0.11933 -0.18469,-0.29795 -0.31681,-0.26172 -0.26144,0.0717 -0.37313,0.42044 -0.62527,0.52008 -0.13458,0.0532 -0.48428,0.0235 -0.42087,-0.10663 0.26447,-0.54217 0.61518,-1.12195 1.1532,-1.39481 0.23242,-0.11785 0.35242,0.40983 0.59338,0.50907 0.092,0.0379 0.15302,-0.1449 0.25116,-0.1612 0.0583,-0.01 0.1074,0.0535 0.14985,0.0945 0.20678,0.19998 0.49407,0.35596 0.59469,0.62546 0.11282,0.30212 0.0636,0.6513 1.5e-4,0.96746 -0.0391,0.19507 -0.13427,0.40418 -0.29803,0.51709 -0.52179,0.35981 -1.0929,0.66547 -1.69663,0.85834 -0.31329,0.1001 -0.68408,0.12784 -0.98663,-0.001 -0.86526,-0.36874 -1.72449,-0.81778 -2.4202,-1.45074 -0.57037,-0.51892 -0.9497,-1.22882 -1.2871,-1.92221 -0.37415,-0.76898 -0.69758,-1.5828 -0.82941,-2.42777 -0.14853,-0.95224 -0.14646,-1.93866 -3.4e-4,-2.89126 0.12854,-0.83799 0.42282,-1.65735 0.81348,-2.40979 0.18805,-0.36225 0.47613,-0.79108 0.87976,-0.8516 m -71.4245,1.56946 c 0,0 0,0 0,0 0.18282,0.24774 0.47835,0.44342 0.54846,0.74326 0.0517,0.22104 -0.19304,0.41812 -0.22432,0.64297 -0.0586,0.42084 -0.0868,0.85138 -0.0425,1.27393 0.35043,3.34131 0.77023,6.67547 1.22532,10.00415 0.0484,0.35397 0.38115,0.68985 0.28374,1.0336 -0.0778,0.2746 -0.43909,0.39133 -0.71156,0.47626 -0.0951,0.0296 -0.20448,-0.0865 -0.23822,-0.18021 -0.15268,-0.42416 -0.23143,-0.87308 -0.30127,-1.31842 -0.53937,-3.43942 -1.10704,-6.87613 -1.5258,-10.33231 -0.0765,-0.63153 -0.0812,-1.28399 0.0427,-1.90796 0.0385,-0.19387 0.23981,-0.33651 0.4193,-0.41934 m -8.1273,0.41193 c 0,0 0,0 0,0 0.003,0.2189 0.0507,0.44205 0.008,0.65668 -0.0448,0.22283 -0.24973,0.40127 -0.26563,0.62799 -0.0738,1.05285 -0.10112,2.11566 -4.4e-4,3.16626 0.21376,2.23053 0.84891,4.41711 0.94174,6.65594 0.0349,0.84235 -0.33896,1.65302 -0.56348,2.46564 -0.0183,0.0663 -0.10247,0.18008 -0.15536,0.13605 -0.21607,-0.17997 -0.43845,-0.40586 -0.49846,-0.68058 -0.0486,-0.22256 0.20659,-0.42334 0.20755,-0.65112 5e-4,-0.12314 -0.1664,-0.19089 -0.20358,-0.30829 -0.0336,-0.1062 -0.0364,-0.22897 1.3e-4,-0.33423 0.0407,-0.11718 0.18686,-0.18057 0.2202,-0.30005 0.0575,-0.20596 0.0737,-0.42859 0.0421,-0.64004 -0.26914,-1.80472 -0.76117,-3.57672 -0.94174,-5.39243 -0.13585,-1.36606 -0.0154,-2.7456 -0.004,-4.11834 0.002,-0.21741 -0.0414,-0.45072 0.0435,-0.65085 0.12019,-0.28311 0.27745,-0.59604 0.54799,-0.74234 m -8.03333,0.34979 c 0,0 0,0 0,0 -0.145,0.13382 -0.35948,0.21918 -0.43496,0.40149 -0.0828,0.20001 -0.0426,0.43716 -2.5e-4,0.6495 0.0196,0.0985 0.21933,0.15149 0.1781,0.24308 -0.0967,0.21496 -0.42698,0.27017 -0.50859,0.4913 -0.0982,0.2662 -0.0396,0.57233 0.0132,0.85114 0.023,0.12164 0.2114,0.18496 0.20654,0.30868 -0.009,0.22617 -0.2465,0.40756 -0.24348,0.63388 0.003,0.22586 0.2079,0.40595 0.26028,0.62567 0.0497,0.20828 0.063,0.42795 0.0418,0.64102 -0.0164,0.16416 -0.0683,0.32898 -0.15255,0.47083 -0.10785,0.18164 -0.35581,0.27753 -0.41262,0.48099 -0.0331,0.11865 0.19734,0.19418 0.18975,0.31714 -0.014,0.22686 -0.23864,0.40792 -0.24852,0.63501 -0.0736,1.68808 -0.0736,3.38095 0,5.069 0.01,0.22714 0.29475,0.41256 0.2485,0.63516 -0.0558,0.26852 -0.51834,0.36828 -0.51395,0.64252 0.005,0.30722 0.32468,0.52694 0.53627,0.74978 0.0462,0.0487 0.14591,0.0654 0.1998,0.0254 0.26105,-0.19379 0.50362,-0.42233 0.69194,-0.68732 0.0819,-0.11523 0.11322,-0.27462 0.0908,-0.41418 -0.0357,-0.22238 -0.2518,-0.39951 -0.25747,-0.62463 -0.008,-0.33063 0.21722,-0.63739 0.21722,-0.96811 0,-0.12339 -0.17723,-0.18299 -0.21722,-0.29972 -0.0361,-0.10537 -0.0366,-0.22894 0,-0.33416 0.0407,-0.11722 0.18641,-0.1807 0.22021,-0.30008 0.0585,-0.20648 0.0456,-0.42752 0.0466,-0.64212 0.013,-3.06342 0.0435,-6.12729 -0.005,-9.19037"
             style="fill:#000000;fill-opacity:1;fill-rule:nonzero;stroke:none"
             id="path52" />
        </g>
      </g>
    </g>
  </g>
</svg>
