<?xml version="1.0" encoding="UTF-8" standalone="no"?>
<!DOCTYPE svg PUBLIC "-//W3C//DTD SVG 1.1//EN"
 "http://www.w3.org/Graphics/SVG/1.1/DTD/svg11.dtd">
<!-- Generated by graphviz version 7.1.0 (0)
 -->
<!-- Title: G Pages: 1 -->
<svg width="91pt" height="12pt"
 viewBox="0.00 0.00 90.80 11.60" xmlns="http://www.w3.org/2000/svg" xmlns:xlink="http://www.w3.org/1999/xlink">
<g id="graph0" class="graph" transform="scale(1 1) rotate(0) translate(4 7.6)">
<title>G</title>
<polygon fill="white" stroke="none" points="-4,4 -4,-7.6 86.8,-7.6 86.8,4 -4,4"/>
<!-- n1 -->
<g id="node1" class="node">
<title>n1</title>
<ellipse fill="black" stroke="black" cx="1.8" cy="-1.8" rx="1.8" ry="1.8"/>
</g>
<!-- n2 -->
<g id="node2" class="node">
<title>n2</title>
<ellipse fill="black" stroke="black" cx="41.4" cy="-1.8" rx="1.8" ry="1.8"/>
</g>
<!-- n1&#45;&gt;n2 -->
<g id="edge1" class="edge">
<title>n1&#45;&gt;n2</title>
<path fill="none" stroke="black" d="M4.05,-1.8C8.47,-1.8 23.55,-1.8 32.85,-1.8"/>
<polygon fill="black" stroke="black" points="32.59,-3.55 37.59,-1.8 32.59,-0.05 32.59,-3.55"/>
</g>
<!-- n3 -->
<g id="node3" class="node">
<title>n3</title>
<ellipse fill="black" stroke="black" cx="81" cy="-1.8" rx="1.8" ry="1.8"/>
</g>
<!-- n2&#45;&gt;n3 -->
<g id="edge2" class="edge">
<title>n2&#45;&gt;n3</title>
<path fill="none" stroke="black" d="M43.65,-1.8C48.07,-1.8 63.15,-1.8 72.45,-1.8"/>
<polygon fill="black" stroke="black" points="72.19,-3.55 77.19,-1.8 72.19,-0.05 72.19,-3.55"/>
</g>
</g>
</svg>
