<?xml version="1.0" encoding="UTF-8" standalone="no"?>
<!DOCTYPE svg PUBLIC "-//W3C//DTD SVG 1.1//EN"
 "http://www.w3.org/Graphics/SVG/1.1/DTD/svg11.dtd">
<!-- Generated by graphviz version 7.1.0 (0)
 -->
<!-- Title: G Pages: 1 -->
<svg width="87pt" height="86pt"
 viewBox="0.00 0.00 86.72 86.21" xmlns="http://www.w3.org/2000/svg" xmlns:xlink="http://www.w3.org/1999/xlink">
<g id="graph0" class="graph" transform="scale(1 1) rotate(0) translate(4 82.21)">
<title>G</title>
<polygon fill="white" stroke="none" points="-4,4 -4,-82.21 82.72,-82.21 82.72,4 -4,4"/>
<!-- n1 -->
<g id="node1" class="node">
<title>n1</title>
<ellipse fill="none" stroke="black" cx="10.9" cy="-10.61" rx="10.71" ry="10.71"/>
<text text-anchor="middle" x="10.9" y="-6.91" font-family="Times,serif" font-size="14.00">1</text>
</g>
<!-- n1&#45;&gt;n1 -->
<g id="edge2" class="edge">
<title>n1&#45;&gt;n1</title>
<path fill="none" stroke="black" d="M3.2,-18.51C-2.62,-28.03 -0.05,-39.21 10.9,-39.21 19.62,-39.21 23.03,-32.11 21.1,-24.41"/>
<polygon fill="black" stroke="black" points="22.76,-23.82 19.19,-19.91 19.53,-25.19 22.76,-23.82"/>
</g>
<!-- n2 -->
<g id="node2" class="node">
<title>n2</title>
<ellipse fill="none" stroke="black" cx="68.11" cy="-10.61" rx="10.71" ry="10.71"/>
<text text-anchor="middle" x="68.11" y="-6.91" font-family="Times,serif" font-size="14.00">2</text>
</g>
<!-- n1&#45;&gt;n2 -->
<g id="edge1" class="edge">
<title>n1&#45;&gt;n2</title>
<path fill="none" stroke="black" d="M22.02,-10.61C30.04,-10.61 41.4,-10.61 50.71,-10.61"/>
<polygon fill="black" stroke="black" points="50.53,-12.36 55.53,-10.61 50.53,-8.86 50.53,-12.36"/>
</g>
<!-- n3 -->
<g id="node3" class="node">
<title>n3</title>
<ellipse fill="none" stroke="black" cx="10.9" cy="-67.61" rx="10.71" ry="10.71"/>
<text text-anchor="middle" x="10.9" y="-63.91" font-family="Times,serif" font-size="14.00">3</text>
</g>
</g>
</svg>
