<?xml version="1.0" encoding="UTF-8" standalone="no"?>
<!DOCTYPE svg PUBLIC "-//W3C//DTD SVG 1.1//EN"
 "http://www.w3.org/Graphics/SVG/1.1/DTD/svg11.dtd">
<!-- Generated by graphviz version 7.1.0 (0)
 -->
<!-- Title: G Pages: 1 -->
<svg width="206pt" height="191pt"
 viewBox="0.00 0.00 206.43 190.93" xmlns="http://www.w3.org/2000/svg" xmlns:xlink="http://www.w3.org/1999/xlink">
<g id="graph0" class="graph" transform="scale(1 1) rotate(0) translate(4 186.93)">
<title>G</title>
<polygon fill="white" stroke="none" points="-4,4 -4,-186.93 202.43,-186.93 202.43,4 -4,4"/>
<!-- n1 -->
<g id="box1" class="node">
<title>n1</title>
<ellipse fill="none" stroke="black" cx="68.28" cy="-130.88" rx="18" ry="18"/>
<text text-anchor="middle" x="68.28" y="-127.18" font-family="Serif" font-size="14.00">R</text>
</g>
<!-- n7 -->
<!-- junction -->
<g id="junction1" class="node">
<title>n7</title>
<ellipse fill="black" stroke="black" cx="105.18" cy="-114.57" rx="2.5" ry="2.5"/>
<text text-anchor="middle" x="96.18" y="-120.87" font-family="Serif" font-size="14.00">w</text>
</g>
<!-- n1&#45;&#45;n7 -->
<g id="edge1" class="edge">
<title>n1&#45;&#45;n7</title>
<path fill="none" stroke="black" d="M85,-123.49C91.71,-120.52 98.73,-117.42 102.46,-115.77"/>
</g>
<!-- n8 -->
<!-- junction -->
<g id="junction2" class="node">
<title>n8</title>
<ellipse fill="black" stroke="black" cx="33.64" cy="-145.92" rx="2.5" ry="2.5"/>
<text text-anchor="middle" x="26.64" y="-152.22" font-family="Serif" font-size="14.00">x</text>
</g>
<!-- n1&#45;&#45;n8 -->
<g id="edge4" class="edge">
<title>n1&#45;&#45;n8</title>
<path fill="none" stroke="black" d="M51.36,-138.22C45.32,-140.85 39.21,-143.5 35.98,-144.9"/>
</g>
<!-- n2 -->
<g id="box2" class="node">
<title>n2</title>
<ellipse fill="none" stroke="black" cx="137.75" cy="-138.38" rx="18" ry="18"/>
<text text-anchor="middle" x="137.75" y="-134.68" font-family="Serif" font-size="14.00">S</text>
</g>
<!-- n2&#45;&#45;n7 -->
<g id="edge2" class="edge">
<title>n2&#45;&#45;n7</title>
<path fill="none" stroke="black" d="M122.99,-127.59C117.06,-123.26 110.87,-118.73 107.57,-116.32"/>
</g>
<!-- n9 -->
<!-- junction -->
<g id="junction3" class="node">
<title>n9</title>
<ellipse fill="black" stroke="black" cx="168.26" cy="-160.64" rx="2.5" ry="2.5"/>
<text text-anchor="middle" x="161.26" y="-166.94" font-family="Serif" font-size="14.00">y</text>
</g>
<!-- n2&#45;&#45;n9 -->
<g id="edge6" class="edge">
<title>n2&#45;&#45;n9</title>
<path fill="none" stroke="black" d="M152.65,-149.25C157.97,-153.14 163.35,-157.06 166.2,-159.14"/>
</g>
<!-- n3 -->
<g id="box3" class="node">
<title>n3</title>
<ellipse fill="none" stroke="black" cx="109.5" cy="-74.46" rx="18" ry="18"/>
<text text-anchor="middle" x="109.5" y="-70.76" font-family="Serif" font-size="14.00">T</text>
</g>
<!-- n3&#45;&#45;n7 -->
<g id="edge3" class="edge">
<title>n3&#45;&#45;n7</title>
<path fill="none" stroke="black" d="M107.54,-92.64C106.75,-99.94 105.93,-107.57 105.49,-111.62"/>
</g>
<!-- n10 -->
<!-- junction -->
<g id="junction4" class="node">
<title>n10</title>
<ellipse fill="black" stroke="black" cx="113.2" cy="-36.88" rx="2.5" ry="2.5"/>
<text text-anchor="middle" x="106.7" y="-43.18" font-family="Serif" font-size="14.00">z</text>
</g>
<!-- n3&#45;&#45;n10 -->
<g id="edge8" class="edge">
<title>n3&#45;&#45;n10</title>
<path fill="none" stroke="black" d="M111.3,-56.11C111.95,-49.55 112.6,-42.92 112.95,-39.42"/>
</g>
<!-- n4 -->
<!-- n4&#45;&#45;n8 -->
<g id="edge5" class="edge">
<title>n4&#45;&#45;n8</title>
<path fill="none" stroke="black" d="M0.87,-161.78C3.89,-160.32 24.38,-150.4 31.33,-147.03"/>
</g>
<!-- n5 -->
<!-- n5&#45;&#45;n9 -->
<g id="edge7" class="edge">
<title>n5&#45;&#45;n9</title>
<path fill="none" stroke="black" d="M197.6,-182.19C194.9,-180.21 176.55,-166.73 170.32,-162.16"/>
</g>
<!-- n6 -->
<!-- n6&#45;&#45;n10 -->
<g id="edge9" class="edge">
<title>n6&#45;&#45;n10</title>
<path fill="none" stroke="black" d="M118.82,-0.91C118.3,-4.22 114.79,-26.71 113.59,-34.35"/>
</g>
</g>
</svg>
